<svg id="visual" viewBox="0 0 960 540" width="960" height="540" xmlns="http://www.w3.org/2000/svg" xmlns:xlink="http://www.w3.org/1999/xlink" version="1.1"><path d="M0 136L14.5 145.8C29 155.7 58 175.3 87.2 182.5C116.3 189.7 145.7 184.3 174.8 166.3C204 148.3 233 117.7 262 106C291 94.3 320 101.7 349 118C378 134.3 407 159.7 436.2 162.3C465.3 165 494.7 145 523.8 151.2C553 157.3 582 189.7 611 194.2C640 198.7 669 175.3 698 161C727 146.7 756 141.3 785.2 133.3C814.3 125.3 843.7 114.7 872.8 114.7C902 114.7 931 125.3 945.5 130.7L960 136L960 0L945.5 0C931 0 902 0 872.8 0C843.7 0 814.3 0 785.2 0C756 0 727 0 698 0C669 0 640 0 611 0C582 0 553 0 523.8 0C494.7 0 465.3 0 436.2 0C407 0 378 0 349 0C320 0 291 0 262 0C233 0 204 0 174.8 0C145.7 0 116.3 0 87.2 0C58 0 29 0 14.5 0L0 0Z" fill="#6600ff"></path><path d="M0 179L14.5 190.7C29 202.3 58 225.7 87.2 233.8C116.3 242 145.7 235 174.8 218C204 201 233 174 262 164C291 154 320 161 349 177.2C378 193.3 407 218.7 436.2 229.5C465.3 240.3 494.7 236.7 523.8 248.3C553 260 582 287 611 288C640 289 669 264 698 253.2C727 242.3 756 245.7 785.2 241.2C814.3 236.7 843.7 224.3 872.8 218.2C902 212 931 212 945.5 212L960 212L960 134L945.5 128.7C931 123.3 902 112.7 872.8 112.7C843.7 112.7 814.3 123.3 785.2 131.3C756 139.3 727 144.7 698 159C669 173.3 640 196.7 611 192.2C582 187.7 553 155.3 523.8 149.2C494.7 143 465.3 163 436.2 160.3C407 157.7 378 132.3 349 116C320 99.7 291 92.3 262 104C233 115.7 204 146.3 174.8 164.3C145.7 182.3 116.3 187.7 87.2 180.5C58 173.3 29 153.7 14.5 143.8L0 134Z" fill="#003b8f"></path><path d="M0 401L14.5 403.7C29 406.3 58 411.7 87.2 411.7C116.3 411.7 145.7 406.3 174.8 395.5C204 384.7 233 368.3 262 368.3C291 368.3 320 384.7 349 383.8C378 383 407 365 436.2 361.3C465.3 357.7 494.7 368.3 523.8 382.7C553 397 582 415 611 418.7C640 422.3 669 411.7 698 398.2C727 384.7 756 368.3 785.2 366.5C814.3 364.7 843.7 377.3 872.8 374.7C902 372 931 354 945.5 345L960 336L960 210L945.5 210C931 210 902 210 872.8 216.2C843.7 222.3 814.3 234.7 785.2 239.2C756 243.7 727 240.3 698 251.2C669 262 640 287 611 286C582 285 553 258 523.8 246.3C494.7 234.7 465.3 238.3 436.2 227.5C407 216.7 378 191.3 349 175.2C320 159 291 152 262 162C233 172 204 199 174.8 216C145.7 233 116.3 240 87.2 231.8C58 223.7 29 200.3 14.5 188.7L0 177Z" fill="#002233"></path><path d="M0 460L14.5 461.8C29 463.7 58 467.3 87.2 470C116.3 472.7 145.7 474.3 174.8 473.3C204 472.3 233 468.7 262 473.2C291 477.7 320 490.3 349 494.8C378 499.3 407 495.7 436.2 493C465.3 490.3 494.7 488.7 523.8 489.7C553 490.7 582 494.3 611 489.8C640 485.3 669 472.7 698 470C727 467.3 756 474.7 785.2 473.8C814.3 473 843.7 464 872.8 460.3C902 456.7 931 458.3 945.5 459.2L960 460L960 334L945.5 343C931 352 902 370 872.8 372.7C843.7 375.3 814.3 362.7 785.2 364.5C756 366.3 727 382.7 698 396.2C669 409.7 640 420.3 611 416.7C582 413 553 395 523.8 380.7C494.7 366.3 465.3 355.7 436.2 359.3C407 363 378 381 349 381.8C320 382.7 291 366.3 262 366.3C233 366.3 204 382.7 174.8 393.5C145.7 404.3 116.3 409.7 87.2 409.7C58 409.7 29 404.3 14.5 401.7L0 399Z" fill="#003b8f"></path><path d="M0 541L14.5 541C29 541 58 541 87.2 541C116.3 541 145.7 541 174.8 541C204 541 233 541 262 541C291 541 320 541 349 541C378 541 407 541 436.2 541C465.3 541 494.7 541 523.8 541C553 541 582 541 611 541C640 541 669 541 698 541C727 541 756 541 785.2 541C814.3 541 843.7 541 872.8 541C902 541 931 541 945.5 541L960 541L960 458L945.5 457.2C931 456.3 902 454.7 872.8 458.3C843.7 462 814.3 471 785.2 471.8C756 472.7 727 465.3 698 468C669 470.7 640 483.3 611 487.8C582 492.3 553 488.7 523.8 487.7C494.7 486.7 465.3 488.3 436.2 491C407 493.7 378 497.3 349 492.8C320 488.3 291 475.7 262 471.2C233 466.7 204 470.3 174.8 471.3C145.7 472.3 116.3 470.7 87.2 468C58 465.3 29 461.7 14.5 459.8L0 458Z" fill="#6600ff"></path></svg>