<svg id="visual" viewBox="0 0 960 540" width="960" height="540" xmlns="http://www.w3.org/2000/svg" xmlns:xlink="http://www.w3.org/1999/xlink" version="1.1"><path d="M0 77L87 93L175 77L262 98L349 50L436 93L524 71L611 71L698 71L785 93L873 55L960 77L960 0L873 0L785 0L698 0L611 0L524 0L436 0L349 0L262 0L175 0L87 0L0 0Z" fill="#002233"></path><path d="M0 303L87 217L175 239L262 217L349 174L436 249L524 266L611 255L698 217L785 287L873 222L960 190L960 75L873 53L785 91L698 69L611 69L524 69L436 91L349 48L262 96L175 75L87 91L0 75Z" fill="#00394a"></path><path d="M0 401L87 374L175 428L262 357L349 379L436 352L524 352L611 449L698 374L785 411L873 336L960 401L960 188L873 220L785 285L698 215L611 253L524 264L436 247L349 172L262 215L175 237L87 215L0 301Z" fill="#00515e"></path><path d="M0 476L87 449L175 471L262 444L349 471L436 438L524 411L611 487L698 444L785 455L873 428L960 471L960 399L873 334L785 409L698 372L611 447L524 350L436 350L349 377L262 355L175 426L87 372L0 399Z" fill="#006a6d"></path><path d="M0 541L87 541L175 541L262 541L349 541L436 541L524 541L611 541L698 541L785 541L873 541L960 541L960 469L873 426L785 453L698 442L611 485L524 409L436 436L349 469L262 442L175 469L87 447L0 474Z" fill="#038373"></path></svg>